<?xml version='1.0' encoding='iso-8859-1'?>
<svg version="1.1" xmlns="http://www.w3.org/2000/svg" viewBox="0 0 137.144 137.144" xmlns:xlink="http://www.w3.org/1999/xlink" enable-background="new 0 0 137.144 137.144">
  <g>
    <g>
      <path d="m37.81,27.351c-3.112,0-5.619,0.971-7.524,2.909-1.905,1.94-2.857,4.4-2.857,7.377 0,2.909 0.936,5.35 2.81,7.325 1.872,1.974 4.3,2.96 7.285,2.96h0.096c3.11,0 5.619-0.986 7.524-2.96 1.905-1.975 2.857-4.416 2.857-7.325-0.064-2.977-1.016-5.437-2.857-7.377-1.843-1.938-4.286-2.909-7.334-2.909zm-10.381,82.364h20.572v-54.858h-20.572v54.858zm82.286-109.715h-82.286c-15.149,0-27.429,12.28-27.429,27.429v82.287c0,15.148 12.28,27.429 27.429,27.429h82.286c15.149,0 27.429-12.28 27.429-27.429v-82.287c0-15.149-12.28-27.429-27.429-27.429zm13.715,102.858c0,11.361-9.21,20.572-20.571,20.572h-68.573c-11.361,0-20.572-9.211-20.572-20.572v-68.572c0-11.362 9.21-20.572 20.572-20.572h68.572c11.361,0 20.571,9.21 20.571,20.572v68.572zm-34.286-48.001c-6.285,0-9.714,0.826-13.714,6.858v-6.858h-20.571l1.072,12.572-1.072,42.286h20.572v-34.286c0-3.301-0.81-3.555 1-5.333 1.81-1.777 3.007-2.666 5.738-2.666 2.793,0 6.761,0.986 6.762,3.595 0,4.969 0.214,7.199 0.214,11.262v27.429h20.572v-32c0-7.555-1.89-13.444-5.667-17.667-3.779-4.222-8.747-5.192-14.906-5.192z"/>
    </g>
  </g>
</svg>
